<svg width="238" height="164" viewBox="0 0 238 164" fill="none" xmlns="http://www.w3.org/2000/svg">
<g clip-path="url(#clip0)">
<path d="M238 126.434C238 146.974 221.353 163.62 200.812 163.62H74.375V163.388C57.9456 163.388 44.625 150.067 44.625 133.638C44.625 117.21 57.9456 103.889 74.375 103.889V103.657H74.4187C74.6804 83.3207 91.1824 66.9355 111.562 66.9355C115.935 66.9355 120.06 67.8363 123.953 69.2015C131.318 54.6756 146.223 44.6236 163.625 44.6236C188.276 44.6236 208.25 64.5969 208.25 89.2473C208.25 89.509 208.177 89.7414 208.177 89.9882C225.188 93.4019 238 108.421 238 126.434ZM61.3594 90.8742L61.8098 88.9856C68.8699 65.9765 91.981 49.5913 117.112 52.3802C127.716 38.9002 143.637 30.8238 160.981 30.054C154.924 12.6085 138.523 0 119 0C101.597 0 86.6934 10.0519 79.3284 24.5779C75.4353 23.2122 71.3098 22.3118 66.9375 22.3118C46.5569 22.3118 30.0549 38.6971 29.7937 59.0334H29.75V59.2658C13.3206 59.2658 0 72.5859 0 89.0149C0 105.444 13.3206 118.764 29.75 118.764V118.996H32.2778C36.7231 106.242 46.7754 96.0742 59.5005 91.5714L61.3594 90.8742Z" fill="#5579DC"/>
</g>
<defs>
<clipPath id="clip0">
<rect width="238" height="163.62" fill="white"/>
</clipPath>
</defs>
</svg>
