<svg width="738" height="164" viewBox="0 0 738 164" fill="none" xmlns="http://www.w3.org/2000/svg">
<g clip-path="url(#clip0)">
<path d="M238 126.434C238 146.974 221.353 163.62 200.812 163.62H74.375V163.388C57.9456 163.388 44.625 150.067 44.625 133.638C44.625 117.21 57.9456 103.889 74.375 103.889V103.657H74.4187C74.6804 83.3207 91.1824 66.9355 111.562 66.9355C115.935 66.9355 120.06 67.8363 123.953 69.2015C131.318 54.6756 146.223 44.6236 163.625 44.6236C188.276 44.6236 208.25 64.5969 208.25 89.2473C208.25 89.509 208.177 89.7414 208.177 89.9882C225.188 93.4019 238 108.421 238 126.434ZM61.3594 90.8742L61.8098 88.9856C68.8699 65.9765 91.981 49.5913 117.112 52.3802C127.716 38.9002 143.637 30.8238 160.981 30.054C154.924 12.6085 138.523 0 119 0C101.597 0 86.6934 10.0519 79.3284 24.5779C75.4353 23.2122 71.3098 22.3118 66.9375 22.3118C46.5569 22.3118 30.0549 38.6971 29.7937 59.0334H29.75V59.2658C13.3206 59.2658 0 72.5859 0 89.0149C0 105.444 13.3206 118.764 29.75 118.764V118.996H32.2778C36.7231 106.242 46.7754 96.0742 59.5005 91.5714L61.3594 90.8742Z" fill="#5579DC"/>
<path d="M318.587 63.8423C333.595 63.8423 342.6 72.1944 342.6 88.9638V132.224H323.742V92.0307C323.742 82.1779 318.261 78.9152 311.54 78.9152C304.558 78.9152 296.923 82.3736 296.793 95.2279V132.224H278V31.999H296.793V73.1716C301.556 67.3642 309.06 63.8406 318.587 63.8406V63.8423ZM438.945 97.7084L438.749 102.211H389.026C389.809 113.369 397.248 118.719 406.188 118.719C412.908 118.719 418.129 115.587 420.674 109.65L437.9 112.194C433.463 125.767 421.391 133.531 406.318 133.531C384.654 133.531 370.493 120.742 370.493 98.6864C370.493 76.6304 385.045 63.7111 405.73 63.7111C424.719 63.7111 438.879 74.2164 438.944 97.7075L438.945 97.7084ZM405.863 77.0253C397.315 77.0253 391.377 81.0055 389.55 89.945H420.349C419.371 81.3971 413.563 77.0253 405.863 77.0253H405.863ZM512.844 65.1486H531.637V132.226H513.823L513.366 124.135C508.668 130.073 501.229 133.531 492.028 133.531C475.911 133.531 467.036 125.114 467.036 110.302V65.1469H485.894V106.256C485.894 115.13 491.441 118.393 497.966 118.393C505.731 118.393 512.779 114.477 512.844 102.145V65.1486H512.844ZM566.253 132.226V32.0007H585.242V132.226H566.253ZM629.451 55.0993C623.513 55.0993 618.553 50.2708 618.553 44.2676C618.553 38.3299 623.513 33.5011 629.451 33.5011C635.258 33.5011 640.218 38.3296 640.218 44.2676C640.218 50.2708 635.258 55.0993 629.451 55.0993ZM619.858 132.226V65.1486H638.782V132.226H619.858ZM713.008 63.8423C729.125 63.8423 738 72.1944 738 87.0715V132.226H719.142V91.1173C719.142 82.1779 713.595 78.9155 707.135 78.9155C699.37 78.9155 692.323 82.8307 692.192 95.2282V132.225H673.399V65.1472H692.192V72.5859C696.891 67.0395 704.133 63.8423 713.008 63.8423V63.8423Z" fill="black"/>
</g>
<defs>
<clipPath id="clip0">
<rect width="738" height="163.62" fill="white"/>
</clipPath>
</defs>
</svg>
